<svg xmlns="http://www.w3.org/2000/svg" width="480" height="360" viewBox="0 0 480 360"><rect width="480" height="360" rx="20" fill="#e9ede7"/><ellipse cx="240" cy="291" rx="97" ry="16" fill="#1a272f" opacity=".12"/><g fill="#798382" stroke="#475553" stroke-width="6" stroke-linejoin="round"><path d="m179 191-13 91 10 2 19-91m119-36 8 98 9 0-6-103M248 207v84h11l1-87m-107-85-7 137 10-1 7-126"/><path d="m155 179 94 46 92-45-91-45Z"/><path d="m155 175-6-115 92-25 18 174Z" fill="#9ca4a0"/><path d="m158 169 1-49 51 17v62m49 1-3-51 74-21 2 46" fill="none" stroke-width="11"/></g><path d="m170 79 62-19m-60 43 63-19m-62 42 65-18" stroke="#d3d8d1" stroke-width="5"/><text x="24" y="336" fill="#536562" font-family="Arial,sans-serif" font-size="13">DIMENSIONAL ILLUSTRATION · NOT PRODUCT PHOTO</text></svg>
