<svg xmlns="http://www.w3.org/2000/svg" width="480" height="360" viewBox="0 0 480 360"><rect width="480" height="360" rx="20" fill="#e9ede7"/><ellipse cx="240" cy="291" rx="95" ry="17" fill="#1a272f" opacity=".12"/><g fill="#f4f1e9" stroke="#88958d" stroke-width="6" stroke-linejoin="round"><path d="m179 191-13 91 10 2 19-91m119-36 8 98 9 0-6-103M248 207v84h11l1-87m-96-110-9 125 10-1 9-115"/><path d="m165 179 84 46 82-45-81-45Z"/><path d="m165 175-6-115 82-25 18 174Z"/></g><path d="m179 78 9 86m16-95 9 93m15-99 11 98" stroke="#c5cec5" stroke-width="9"/><text x="24" y="336" fill="#536562" font-family="Arial,sans-serif" font-size="13">DIMENSIONAL ILLUSTRATION · NOT PRODUCT PHOTO</text></svg>
